<?xml version="1.0" standalone="no"?>
<!DOCTYPE svg PUBLIC "-//W3C//DTD SVG 20010904//EN"
 "http://www.w3.org/TR/2001/REC-SVG-20010904/DTD/svg10.dtd">
<svg version="1.0" xmlns="http://www.w3.org/2000/svg"
 width="600.000000pt" height="600.000000pt" viewBox="0 0 600.000000 600.000000"
 preserveAspectRatio="xMidYMid meet">
<metadata>
Created by potrace 1.11, written by Peter Selinger 2001-2013
</metadata>
<g transform="translate(0.000000,600.000000) scale(0.100000,-0.100000)"
fill="#000000" stroke="none">
<path d="M2828 5955 c-2 -1 -43 -6 -93 -9 -118 -9 -305 -39 -432 -71 -1041
-254 -1865 -1050 -2153 -2080 -17 -60 -32 -119 -34 -130 -50 -261 -50 -260
-63 -400 -14 -154 -7 -531 11 -645 29 -176 40 -230 61 -316 91 -379 264 -747
497 -1063 39 -53 74 -98 77 -101 3 -3 28 -32 55 -65 28 -33 102 -112 166 -175
452 -450 1034 -740 1670 -830 236 -34 595 -34 820 0 151 23 200 33 345 71 269
70 520 176 765 322 103 62 279 184 336 233 12 11 46 39 75 64 86 71 259 247
341 346 342 414 555 879 647 1416 27 157 36 279 35 498 -1 251 -13 360 -68
635 -15 74 -79 294 -105 360 -119 299 -228 503 -386 721 -360 494 -841 851
-1425 1059 -113 41 -332 98 -433 115 -34 5 -71 12 -82 14 -24 4 -100 14 -175
22 -56 6 -446 14 -452 9z m392 -339 c41 -3 84 -8 95 -10 11 -2 45 -7 75 -11
358 -46 774 -210 1100 -434 183 -125 412 -336 540 -497 195 -245 337 -493 437
-764 53 -144 112 -381 128 -509 4 -30 8 -63 10 -73 8 -39 18 -196 18 -293 1
-104 -10 -335 -18 -357 -2 -7 -6 -31 -9 -53 -4 -34 -24 -137 -40 -212 -121
-562 -502 -1148 -971 -1494 -33 -24 -62 -46 -65 -49 -3 -3 -49 -34 -104 -69
-475 -306 -1045 -451 -1606 -408 -101 8 -159 14 -200 22 -14 3 -41 7 -60 10
-245 38 -525 133 -770 261 -105 55 -362 222 -410 266 -14 13 -45 39 -70 59
-64 52 -215 202 -286 284 -253 294 -440 642 -545 1015 -13 49 -14 53 -23 90
-3 14 -8 36 -11 50 -4 21 -24 133 -40 228 -23 140 -23 512 1 672 111 759 504
1401 1115 1822 129 88 142 96 324 187 321 159 616 241 960 267 50 3 91 7 92 8
5 4 261 -2 333 -8z"/>
<path d="M1908 4295 c-2 -2 -30 -5 -63 -8 -119 -11 -241 -47 -363 -107 -357
-176 -588 -539 -641 -1010 -9 -78 -6 -359 4 -420 20 -120 41 -205 66 -280 168
-488 566 -773 1065 -764 54 1 119 4 144 8 449 63 771 335 921 775 65 191 98
491 75 686 -3 28 -8 73 -11 100 -15 133 -85 349 -151 467 -143 252 -364 433
-621 506 -108 31 -188 43 -309 47 -62 1 -114 1 -116 0z m214 -276 c325 -66
548 -328 634 -744 26 -124 26 -423 1 -545 -85 -411 -300 -670 -615 -744 -32
-7 -101 -14 -153 -15 -351 -7 -631 218 -752 604 -14 44 -28 94 -31 110 -4 17
-9 41 -12 55 -10 49 -18 156 -18 245 0 421 148 763 404 930 80 52 123 71 220
95 86 21 241 26 322 9z"/>
<path d="M3418 4252 c-21 -2 -38 -9 -39 -15 0 -7 -1 -569 -2 -1249 -1 -818 1
-1239 8 -1241 6 -2 78 -3 160 -3 l150 1 5 481 5 480 92 105 c50 57 103 117
117 134 l26 30 17 -25 c10 -13 196 -290 413 -615 l395 -590 188 0 c103 0 187
3 187 7 0 3 -35 57 -78 120 -42 62 -109 160 -147 218 -39 58 -72 107 -75 110
-3 3 -52 75 -109 160 -58 85 -137 202 -176 260 -39 58 -142 209 -228 337
l-157 232 22 27 c13 15 28 32 33 38 6 6 76 88 155 181 80 94 155 181 167 195
11 14 54 63 93 110 40 47 92 108 116 135 191 222 313 369 310 372 -3 4 -125 5
-344 3 l-48 0 -184 -227 c-102 -124 -207 -254 -235 -287 -238 -291 -381 -470
-459 -575 l-91 -125 -3 607 -2 607 -58 1 c-31 0 -86 1 -122 2 -36 1 -82 1
-102 -1z"/>
</g>
</svg>
